<?xml version="1.0" encoding="UTF-8"?>
<svg id="Layer_2" data-name="Layer 2" xmlns="http://www.w3.org/2000/svg" viewBox="0 0 801.27 1018.73">
  <defs>
    <style>
      .cls-1 {
        fill: #0a3115;
      }

      .cls-2 {
        fill: #fff;
      }

      .cls-3 {
        fill: #1ec85f;
      }
    </style>
  </defs>
  <g id="Camada_1" data-name="Camada 1">
    <g>
      <g>
        <path class="cls-1" d="M277.62,313.87l15.22-6.03c8.34-3.31,12.46-12.84,9.16-21.18l-12.72-32.09c-3.31-8.34-12.84-12.46-21.18-9.15l-15.22,6.03c-8.34,3.31-12.46,12.84-9.16,21.18l12.72,32.09c3.31,8.34,12.84,12.46,21.18,9.16Z"/>
        <path class="cls-1" d="M288.34,256.48c7.54,8.77,16.42,10.62,18.74,16.47,3.62,9.15-32.77,16.92-32.77,16.92,0,0,7.74-40.7,14.03-33.39Z"/>
        <path class="cls-3" d="M264.32,289.5c-3.28,0-6.28-1.77-7.46-4.74-1.59-4,.73-8.69,5.16-10.45.76-.31,1.64.06,1.94.84.3.77-.07,1.64-.84,1.94-2.9,1.15-4.46,4.09-3.48,6.56.98,2.46,4.12,3.53,7.03,2.39.78-.3,1.64.07,1.94.84.3.77-.07,1.64-.84,1.94-1.14.45-2.31.67-3.45.67Z"/>
      </g>
      <path class="cls-2" d="M795.28,454.71c-3.31,0-5.99-2.68-5.99-5.99,0-249.05-188.27-388.33-374.25-397.2C249.78,43.71,46.57,142.22,17.54,445.96c-.31,3.29-3.22,5.78-6.53,5.39-3.29-.31-5.71-3.23-5.39-6.53C35.44,132.69,245.04,31.36,415.61,39.56c186.96,8.91,385.66,155.34,385.66,409.16,0,3.31-2.68,5.99-5.99,5.99Z"/>
      <path class="cls-1" d="M330.62,610.18h-113.22c-21.57,0-34.5-14.77-36.97-39.75,0,0-.06-71.76-2.14-94.33-4.15-45.04-21.33-94.68-21.33-94.68-2.9-29.38,16.81-55.15,42.18-55.15h149.75c25.37,0,45.08,25.77,42.18,55.15,0,0-18.99,71.01-21.33,94.68-2.23,22.56-3.56,94.33-3.56,94.33-2.47,24.98-13.98,39.75-35.55,39.75Z"/>
      <path class="cls-1" d="M356.42,1018.73c-19.17,0-34.21.46-35.32-14.89l-28.19-428.59c-1.33-20.23,13.99-37.71,34.23-39.04,20.25-1.25,37.71,13.99,39.04,34.23l26.91,409.17c.52,7.97,16.72,39.12,9.29,39.12h-45.96Z"/>
      <path class="cls-1" d="M190.19,1018.73c19.17,0,34.21.46,35.32-14.89l28.19-428.59c1.33-20.23-13.99-37.71-34.23-39.04-20.25-1.25-37.71,13.99-39.04,34.23l-26.91,409.17c-.52,7.97-40.67,39.12-33.25,39.12h69.92Z"/>
      <g>
        <path class="cls-1" d="M230.47,361.47c-.7,19.82-11.27,35.77-24.58,36.69-23.19,1.58-46.65,5.32-65.38,12.64-9.22,3.57-16.97,8.42-20.43,12.58-1.78,2.09-2.83,3.67-3.22,5.42-.38,2.17-.83,2.77-.36,8.55,1.42,19.16,8.5,41.04,18.79,60.4,10.19,19.58,23.69,37.53,39.48,51.65,4.55,4,6.23,10.54,5.96,18.22-.31,7.65-2.74,16.88-8.06,25.25-1.02,1.6-2.12,3.11-3.29,4.51-10.7,13.52-30,16.82-42.45,5.65-23.34-20.95-41.44-45.45-55.34-71.99-7.01-13.26-12.89-27.13-17.51-41.82-4.6-14.7-8.15-30.06-9.32-47.31l-.34-6.53c-.13-2.05.1-5.81.25-8.64.21-5.97,1.62-12.49,3.33-18.57,3.55-12.52,10.54-23.74,18.15-32.32,15.66-17.39,32.59-25.59,47.84-31.86,30.85-11.79,55.15-15.47,83.22-17.6,16.32-1.12,33.66,15.21,33.25,35.08Z"/>
        <path class="cls-1" d="M102.03,577.09s17.45,26.97,21.6,32.17c4.45,5.56,11.88,9.35,16.59,9.07,8.71-.53,16.45-5.91,18.7-10.64,0,0,11.66-2.73,16.63-8.77,3.44-4.19,3.13-11.84,2.84-14.33,3.15-.45,10.32-5.92,12.35-9.63,2.6-4.75,1.49-12.49.12-16.16-2.19-5.92-8.15-7.53-12.14-8.68-3.82-1.39-7.39-1.4-7.39-1.4-16.76,16.3-51.76,12.83-69.3,28.39Z"/>
        <path class="cls-1" d="M169.71,528.31c-8.61-2.04-21.24-7.82-23.21-10.22l28.45,36.71c9.48-18.44,1.18-24.52-5.24-26.49Z"/>
      </g>
      <path class="cls-3" d="M399.59,51.01c0,28.17-22.84,51.02-51.02,51.02s-51.01-22.84-51.01-51.02S320.4,0,348.58,0s51.02,22.84,51.02,51.01Z"/>
      <g>
        <path class="cls-1" d="M349.25,14.71c3.71.44,5.6,4.35,8.3,6.24.55.39,1.04.45,1.7.42,3.59-.14,7.22-2.07,10.57.22,3.25,2.23,2.73,6.59,3.63,10,.34,1.3.59,1.36,1.68,2.01,3.87,2.29,9.71,3.76,8.04,9.83-.52,1.89-3.39,6.28-3.35,7.65.03,1.18,2.15,4.56,2.72,5.92,3.1,7.4-2.51,8.57-7.4,11.46-1.01.6-1.32.68-1.66,1.89-.95,3.43-.35,7.84-3.65,10.11s-6.98.36-10.57.22c-.66-.03-1.15.04-1.7.42-2.4,1.68-4.29,5.2-7.34,6-1.12.29-2.12.31-3.24.03-3.11-.76-5.02-4.34-7.45-6.04-.55-.39-1.04-.45-1.7-.42-3.09.12-6.44,1.68-9.48.39-4.42-1.87-3.7-6.76-4.72-10.61-.19-.73-.26-1.05-.88-1.53-2.6-2.03-6.88-2.49-8.45-5.89-1.94-4.21,1.21-7.17,2.61-10.78.4-1.04.43-1.31.04-2.37-1.29-3.46-4.12-5.98-2.98-10.07.98-3.49,5.17-4.57,7.97-6.22,1.1-.65,1.34-.71,1.68-2.01.9-3.4.37-7.76,3.63-10,3.35-2.3,6.98-.36,10.57-.22.66.03,1.15-.04,1.7-.42,2.7-1.89,4.59-5.81,8.3-6.24.35-.04,1.07-.04,1.42,0ZM339.43,32.21c-6.21.58-9.23,8.18-4.94,12.8,3.56,3.84,9.82,3.19,12.38-1.4,3.01-5.4-1.32-11.98-7.43-11.4ZM361.85,35.18c-.31.06-.66.31-.89.53l-27.82,27.81c-1.61,2.01.91,4.53,2.92,2.92l27.89-27.88c1.32-1.61-.09-3.79-2.1-3.38ZM355.75,54.62c-2.79.33-5.45,2.75-6.21,5.43-1.82,6.48,4.95,12.11,10.95,8.96,7.48-3.92,4.04-15.45-4.75-14.39Z"/>
        <path class="cls-1" d="M359.42,59.74c3.32,3.31-2.01,8.34-5.14,4.78-2.91-3.31,1.97-7.93,5.14-4.78Z"/>
        <path class="cls-1" d="M337.66,42.33c-3.32-3.31,2.01-8.34,5.14-4.78,2.89,3.28-1.94,7.97-5.14,4.78Z"/>
      </g>
      <path class="cls-3" d="M770.33,221.35c0,28.17-22.84,51.02-51.02,51.02s-51.01-22.84-51.01-51.02,22.84-51.01,51.01-51.01,51.02,22.84,51.02,51.01Z"/>
      <g>
        <path class="cls-1" d="M741.63,226.26v19.08c0,1.62-2.66,4.08-4.36,4.04h-48.29c-1.8.23-4.66-2.33-4.66-4.04v-19.08h57.31ZM693.31,240.55c-1.82.28-1.73,2.27-.35,2.48,2.19.34,5.15-.23,7.43,0,1.44-.71,1.04-2.25-.51-2.49-1.25-.19-5.31-.19-6.57,0Z"/>
        <path class="cls-1" d="M741.63,223.73h-57.31v-6.57c0-1.71,2.76-4.1,4.51-4.04h47.97c1.84-.25,4.82,2.28,4.82,4.04v6.57Z"/>
        <path class="cls-1" d="M754.3,202.99h-57.31v-5.78c0-1.42,2.79-4,4.36-3.88h48.29c1.8-.23,4.66,2.33,4.66,4.04v5.62Z"/>
        <path class="cls-1" d="M754.3,205.52v20.03c0,1.53-2.68,4.04-4.2,4.04h-5.94v-12.74c0-2.61-3.97-6.25-6.57-6.25h-40.61v-5.07h57.31Z"/>
      </g>
      <path class="cls-3" d="M213.88,111.56c0,28.17-22.84,51.02-51.02,51.02s-51.01-22.84-51.01-51.02,22.84-51.01,51.01-51.01,51.02,22.84,51.02,51.01Z"/>
      <g>
        <path class="cls-1" d="M188.66,101.71v34.39c0,2.15-3.36,4.99-5.56,4.79h-40.9c-2.1,0-5.25-2.69-5.25-4.79v-34.39c-1.39.56-2.42,2.32-4,2.36-2.35.06-3.52-2.84-1.73-4.4l30.75-23.78,1.88.09c9.63,7.81,20.08,14.99,29.57,22.92.55.46,1.45,1.07,1.73,1.72.46,1.07.16,2.28-.78,2.98-2.23,1.66-3.85-1.07-5.72-1.88ZM159.99,123.8c8.44,2.29,15.48-5.42,15.99-13.39.54-8.49-1.62-10.77-10.12-10.28-8.59.5-16.74,8.45-13.1,17.35.62,1.52,1.62,2.69,2.7,3.89-.4,1.49-.78,3.01-.95,4.55-.08.74-.22,1.97-.16,2.67.18,2.42,2.88,3.59,4.47,1.64.81-.99.54-2.58.7-3.84.11-.87.34-1.72.47-2.59Z"/>
        <path class="cls-1" d="M162.02,119.1c-.32-.31,1.73-2.97,2.04-3.36.7-.88,2.39-2.24,2.51-3.29.23-2.05-1.68-3.54-3.59-2.65-1.64.76-3.94,4.43-4.99,5.97-.09.14.02.29-.35.2-2.56-5.26,2.73-10.36,7.76-10.81.7-.06,4.68-.1,5.09.08.21.09.43.39.47.63.16.84.08,3.58,0,4.54-.36,4.51-4.01,9.28-8.93,8.7Z"/>
      </g>
      <path class="cls-3" d="M102.03,246.9c0,28.17-22.84,51.02-51.02,51.02S0,275.08,0,246.9s22.84-51.01,51.01-51.01,51.02,22.84,51.02,51.01Z"/>
      <path class="cls-1" d="M55.3,240.04h22.22c.45,0,1.17,1.11.94,1.62l-32.29,46.29c-1.25.49-2.19-.39-2.03-1.68l2.59-32.51h-22.22c-.45,0-1.17-1.11-.94-1.62l32.29-46.29c1.25-.49,2.19.39,2.03,1.68l-2.59,32.51Z"/>
      <path class="cls-3" d="M595,75.88c0,28.17-22.84,51.02-51.02,51.02s-51.01-22.84-51.01-51.02,22.84-51.01,51.01-51.01,51.02,22.84,51.02,51.01Z"/>
      <g>
        <path class="cls-2" d="M544.61,37.33c.81.45,1.54.94,1.7,1.95.46,2.95-.33,7,.01,10.07-.49,2.78-4.17,2.78-4.66,0,.34-3.07-.45-7.12.01-10.07.16-1.01.89-1.49,1.7-1.95h1.24Z"/>
        <path class="cls-2" d="M504.29,77.66v-1.24c.45-.81.94-1.54,1.95-1.7,2.95-.46,7,.33,10.07-.01,2.78.49,2.78,4.17,0,4.66-3.07-.34-7.12.45-10.07-.01-1.01-.16-1.49-.89-1.95-1.7Z"/>
        <path class="cls-2" d="M542.88,56.15c16.17-.92,27.2,16.3,19.65,30.66-2.54,4.83-6.17,6.04-6.9,12.17-.2,1.63.36,3.15-1.82,3.76l-19.86-.07c-2.14-.78-1.45-3.18-1.77-5.05-.66-3.78-2.46-4.92-4.6-7.65-10.55-13.4-1.7-32.87,15.31-33.83Z"/>
        <path class="cls-2" d="M553.3,107.43v3.02c0,1.77-1.73,4.25-3.21,5.17-2.59,1.61-9.48,1.62-12.1.06-1.53-.91-3.3-3.41-3.3-5.23v-3.02h18.61Z"/>
        <path class="cls-2" d="M571.4,74.74h10.48c2.47.59,2.36,4.22-.13,4.61-1.32.21-9.12.22-10.35-.03-2.4-.49-2.39-4.03,0-4.58Z"/>
        <path class="cls-2" d="M517.44,48.38c.75-.06,1.41.31,1.97.75,1.33,1.02,5.52,5.2,6.5,6.52.89,1.19,1.01,2.77-.38,3.62-1.09.67-1.99.38-2.93-.32-1.27-.95-5.64-5.32-6.59-6.59-1.17-1.58-.61-3.81,1.43-3.99Z"/>
        <path class="cls-2" d="M570.17,48.38c1.33-.11,2.59,1.16,2.48,2.48-.04.54-.36,1.08-.68,1.5-.95,1.27-5.32,5.64-6.59,6.59-.94.7-1.84.98-2.93.32-1.39-.85-1.27-2.43-.38-3.62,1.02-1.37,5.04-5.36,6.42-6.45.48-.38,1.05-.77,1.67-.82Z"/>
      </g>
      <path class="cls-1" d="M356.1,398.21c-16.45,0-32.03-.36-46.07-.87-19.83-.73-35.31-17.4-34.58-37.23.72-19.83,19.25-33.99,39.12-33.77,94.12,1.06,195.29-8.91,213.06-25.23,5.78-14.38,2.62-44.51-.18-71.18-1.85-17.61-3.76-35.83-3.87-53.51-.12-19.85,15.87-36.03,35.72-36.15h.22c19.75,0,35.81,15.94,35.93,35.72.09,14.14,1.73,29.82,3.47,46.44,4.06,38.73,8.27,78.78-6.94,110.81-25.64,54.02-144.15,64.97-235.89,64.97Z"/>
      <path class="cls-3" d="M157.72,607.96c-1.44,0-2.72-1.05-2.95-2.53-.87-5.46-4.7-20.68-11.99-25.48-2.18-1.44-4.5-1.8-7.09-1.16-4.78,1.22-5.52,3.41-5.76,4.14-1.59,4.69,3.51,12.59,5.42,14.99,1.03,1.29.82,3.18-.47,4.21-1.27,1.03-3.17.82-4.21-.47-.96-1.21-9.32-12-6.42-20.63,1.35-3.99,4.7-6.7,9.97-8.04,4.26-1.09,8.25-.42,11.86,1.97,10.98,7.24,14.46,28.63,14.61,29.54.26,1.64-.86,3.17-2.49,3.43-.16.02-.32.03-.47.03Z"/>
      <path class="cls-3" d="M176.13,585.17c-1.28,0-2.47-.83-2.87-2.12-.08-.25-7.62-24.56-22.69-22.06-2.35.37-4.06,1.37-5.22,3.05-2.91,4.18-1.61,11.16-1.6,11.22.33,1.63-.72,3.21-2.35,3.53-1.58.33-3.21-.73-3.53-2.35-.08-.39-1.84-9.51,2.55-15.83,2.11-3.04,5.21-4.91,9.2-5.54,20.24-3.14,29,25.04,29.36,26.24.48,1.59-.41,3.25-1.99,3.74-.29.09-.59.13-.87.13Z"/>
      <g>
        <path class="cls-1" d="M148.2,540.78c6.57,9.75-4.4,11.62.42,20.14,5.12,9.08,19.5,5.07,26.23-9.69l-26.64-10.45Z"/>
        <path class="cls-3" d="M156.92,568.74c-4.66,0-8.61-2.29-10.9-6.35-3.04-5.38-1.2-9.15.13-11.91,1.3-2.69,2.09-4.3-.43-8.03-.92-1.37-.56-3.23.81-4.16,1.37-.91,3.23-.57,4.16.81,4.43,6.59,2.36,10.87.85,13.99-1.16,2.39-1.8,3.7-.3,6.35,1.62,2.88,4.24,3.42,6.05,3.3,4.59-.2,10.95-4.22,14.84-12.76.7-1.51,2.5-2.15,3.97-1.49,1.51.68,2.17,2.46,1.49,3.97-4.35,9.54-12.22,15.92-20.04,16.26-.21,0-.41.01-.62.01Z"/>
      </g>
      <g>
        <g>
          <path class="cls-1" d="M596.1,212.09l-1.29-55.28c-.36-15.26-13.38-27.26-30.5-29.96-1.81-.27-3.68-.43-5.58-.47-19.86-.59-36.22,14.15-35.78,31.89l2.91,56.04,70.24-2.22Z"/>
          <path class="cls-1" d="M525.41,205.78l1.9-64.89c-34.88,21.81-2.1,56.63-1.9,64.89Z"/>
          <path class="cls-1" d="M595.28,177.06c-.46-10.47,5.71-30.14-.52-40.68-2.23-3.78-10.56-9.63-19.09-6.86,0,0-6.67-6.93-16.22-7.23-9.41-.29-12.86,3.83-15.98,3.83-2.33-.02-5.95-2-10.12-1.2-5.07.98-9.09,3.17-10.66,7.3-2,12.93,2.17,30.33,2.17,30.33,0,0,71.21,32.33,70.42,14.51Z"/>
        </g>
        <path class="cls-1" d="M532.65,159.82c-6.55,0-11.89-5.26-11.97-11.83-.28-21.92,2.24-44.96,7.68-70.44,1.39-6.47,7.8-10.61,14.22-9.21,6.47,1.39,10.59,7.75,9.21,14.22-5.07,23.71-7.42,45.01-7.16,65.12.08,6.62-5.21,12.05-11.83,12.13h-.16Z"/>
        <path class="cls-3" d="M543.77,143.59c-1.48,0-2.77-1.1-2.97-2.61-.46-3.52.95-11.44,1.25-12.99.29-1.64,1.87-2.7,3.49-2.4,1.63.3,2.7,1.86,2.4,3.49-.6,3.24-1.45,9.12-1.19,11.13.21,1.64-.94,3.14-2.59,3.36-.13.02-.26.02-.39.02Z"/>
        <path class="cls-3" d="M573.43,147.18c-1.54,0-2.85-1.19-2.98-2.75-.32-3.9,1.31-11.99,1.49-12.9.34-1.63,1.95-2.67,3.53-2.34,1.62.33,2.67,1.91,2.34,3.53-.64,3.12-1.58,8.93-1.4,11.22.13,1.65-1.09,3.09-2.74,3.22-.08,0-.16.01-.25.01Z"/>
      </g>
    </g>
  </g>
</svg>