<?xml version="1.0" encoding="UTF-8"?>
<svg xmlns="http://www.w3.org/2000/svg" baseProfile="tiny" version="1.2" viewBox="0 0 50 50">
  <!-- Generator: Adobe Illustrator 28.6.0, SVG Export Plug-In . SVG Version: 1.2.0 Build 709)  -->
  <g>
    <g id="Layer_1">
      <g>
        <g>
          <g>
            <path d="M44.2,38.8c-.4,0-.7-.3-.7-.7v-21.9c0-.9-.7-1.5-1.5-1.5h-2.9c-.4,0-.7-.3-.7-.7s.3-.7.7-.7h2.9c1.6,0,2.9,1.3,2.9,2.9v21.9c0,.4-.3.7-.7.7Z" fill="#676767"/>
            <path d="M5.8,38.8c-.4,0-.7-.3-.7-.7v-21.9c0-1.6,1.3-2.9,2.9-2.9h2.3c.4,0,.7.3.7.7s-.3.7-.7.7h-2.3c-.9,0-1.5.7-1.5,1.5v21.9c0,.4-.3.7-.7.7Z" fill="#676767"/>
            <path d="M41.5,46.8H8.5c-3.3,0-6-2.7-6-6h0c0-.8.6-1.5,1.4-1.5h42.2c.8,0,1.4.6,1.4,1.4h0c0,3.3-2.7,6-6,6ZM3.9,40.7c0,0-.1,0-.1.1h0c0,2.6,2.1,4.7,4.7,4.7h33.1c2.6,0,4.7-2.1,4.7-4.7h0c0,0,0-.1-.1-.1H3.9Z" fill="#676767"/>
          </g>
          <g>
            <g>
              <path d="M24.7,20.2c-1.3,0-2.6-.6-3.3-1.5-.2-.3-.2-.7.1-.9.3-.2.7-.2.9.1.5.6,1.3,1,2.3,1,1.5,0,2.6-.9,2.6-2.1s-1-1.9-2.4-2.1c-1.9-.1-3.3-1.5-3.3-3.1s1.6-3.1,3.6-3.1,2.3.5,3,1.4c.2.3.2.7-.1.9-.3.2-.7.2-.9-.1-.4-.5-1.2-.9-2-.9-1.3,0-2.3.8-2.3,1.8s.9,1.7,2.1,1.8c0,0,0,0,0,0,2.1.2,3.6,1.6,3.6,3.4s-1.8,3.4-3.9,3.4Z" fill="#676767"/>
              <path d="M25,22.3c-.4,0-.7-.3-.7-.7v-1.9c0-.4.3-.7.7-.7s.7.3.7.7v1.9c0,.4-.3.7-.7.7Z" fill="#676767"/>
              <path d="M25,9.7c-.4,0-.7-.3-.7-.7v-2c0-.4.3-.7.7-.7s.7.3.7.7v2c0,.4-.3.7-.7.7Z" fill="#676767"/>
            </g>
            <path d="M23.8,25.4s0,0,0,0c-5.6-.6-9.9-5.4-9.9-11S18.9,3.2,25,3.2s11.1,5,11.1,11.1-.8,4.8-2.3,6.7c-.2.3-.6.3-.9.1-.3-.2-.3-.6-.1-.9,1.3-1.7,2-3.8,2-5.9,0-5.4-4.4-9.8-9.8-9.8s-9.8,4.4-9.8,9.8,3.8,9.2,8.7,9.8c.4,0,.6.4.6.7,0,.3-.3.6-.6.6Z" fill="#676767"/>
          </g>
          <path d="M34.3,35.1c-.2,0-.4-.1-.6-.3l-2.4-4.1-1.6,2c-.2.2-.4.3-.7.2-.3,0-.4-.3-.5-.6l-.8-10.5c0-.2.1-.5.3-.6.2-.1.5-.1.7,0l8.9,5.8c.2.1.3.4.3.7s-.3.5-.5.5l-2.5.5,2.4,4.1c0,.1.1.3,0,.5,0,.2-.1.3-.3.4l-2.4,1.4c-.1,0-.2,0-.3,0ZM31.4,28.9s0,0,0,0c.2,0,.4.1.5.3l2.6,4.3,1.3-.8-2.6-4.3c-.1-.2-.1-.4,0-.6,0-.2.3-.3.5-.4l1.8-.4-6.4-4.2.6,7.6,1.2-1.4c.1-.1.3-.2.5-.2Z" fill="#676767"/>
        </g>
        <path d="M9.9,36.8c-.4,0-.7-.3-.7-.7v-17.6c0-.4.3-.7.7-.7h2.7c.4,0,.7.3.7.7s-.3.7-.7.7h-2.1v16.9c0,.4-.3.7-.7.7Z" fill="#676767"/>
        <path d="M40.4,36.8c-.4,0-.7-.3-.7-.7v-16.9h-2.1c-.4,0-.7-.3-.7-.7s.3-.7.7-.7h2.7c.4,0,.7.3.7.7v17.6c0,.4-.3.7-.7.7Z" fill="#676767"/>
      </g>
    </g>
  </g>
</svg>