<?xml version="1.0" encoding="UTF-8"?>
<svg xmlns="http://www.w3.org/2000/svg" baseProfile="tiny" version="1.2" viewBox="0 0 50 50">
  <!-- Generator: Adobe Illustrator 28.6.0, SVG Export Plug-In . SVG Version: 1.2.0 Build 709)  -->
  <g>
    <g id="Layer_1">
      <g>
        <path d="M27.2,17.4c0,0-.2,0-.3,0-1.2-.6-2.6-.9-3.9-1l-9.9-.7c-2.3-.2-4.5-.9-6.5-2.2l-2.9-2c-.3-.2-.4-.6-.2-.9.2-.3.6-.4.9-.2l2.9,2c1.7,1.2,3.7,1.9,5.8,2l9.9.7c1.5.1,3,.5,4.4,1.1.3.2.5.5.3.9-.1.2-.4.4-.6.4Z" fill="#666"/>
        <path d="M44.7,39.7h-25.3c-1.6,0-2.8-1.3-2.8-2.8v-2.1c0-.4.3-.7.7-.7s.7.3.7.7v2.1c0,.8.7,1.5,1.5,1.5h25.3c.8,0,1.5-.7,1.5-1.5v-15.3c0-.8-.7-1.5-1.5-1.5h-13.7c-.4,0-.7-.3-.7-.7,0-.4.3-.7.7-.7h2s11.7,0,11.7,0c1.6,0,2.8,1.3,2.8,2.8v15.3c0,1.6-1.3,2.8-2.8,2.8Z" fill="#666"/>
        <path d="M25.1,35.6c-.5,0-1-.1-1.5-.4l-3.1-1.5c-.9-.4-1.8-.6-2.8-.5-2.2.3-4.5-.7-5.8-2.5l-2.8-3.9c-.3-.4-.6-.7-.9-1l-5.4-3.5c-.3-.2-.4-.6-.2-.9.2-.3.6-.4.9-.2l5.5,3.5s0,0,0,0c.4.4.8.8,1.1,1.2l2.8,3.9c1.1,1.4,2.8,2.2,4.6,2,1.2-.1,2.4,0,3.5.6l3.1,1.5c1,.5,2.2.2,2.8-.8.3-.5.4-1.1.3-1.6-.1-.6-.5-1-1-1.3l-9-5.5c-.5-.3-.8-.8-.8-1.4v-1.1c0-.4.3-.7.7-.7s0,0,0,0c.4,0,.7.3.7.7v1.1c0,0,0,.2.1.2l9,5.5c.8.5,1.3,1.3,1.6,2.2s0,1.8-.4,2.6c-.7,1-1.8,1.6-2.9,1.6Z" fill="#666"/>
        <path d="M17.2,23s0,0,0,0c-.4,0-.7-.3-.7-.7v-.7c0-1.6,1.3-2.8,2.8-2.8h11.6s0,0,0,0c.4,0,.7.3.7.7,0,.4-.3.7-.7.7h-11.6c-.8,0-1.5.7-1.5,1.5v.7c0,.4-.3.7-.7.7Z" fill="#666"/>
        <g>
          <path d="M42.1,34.2c-.1,0-.3,0-.4-.2-.3-.2-.3-.7,0-.9.9-1.1,1.4-2.5,1.4-3.9s-.5-2.7-1.4-3.9c-.2-.3-.2-.7,0-.9.3-.2.7-.2.9,0,1.1,1.4,1.7,3,1.7,4.7s-.6,3.3-1.7,4.7c-.1.2-.3.2-.5.2Z" fill="#666"/>
          <path d="M39.6,33.1c-.1,0-.3,0-.4-.2-.3-.2-.3-.7,0-.9.7-.8,1-1.8,1-2.8s-.4-2-1-2.8c-.2-.3-.2-.7,0-.9.3-.2.7-.2.9,0,.9,1.1,1.3,2.3,1.3,3.6s-.5,2.6-1.3,3.6c-.1.2-.3.2-.5.2Z" fill="#666"/>
          <path d="M37,32c-.1,0-.3,0-.4-.2-.3-.2-.3-.7,0-.9.4-.5.6-1.1.6-1.7s-.2-1.2-.6-1.7c-.2-.3-.2-.7,0-.9.3-.2.7-.2.9,0,.6.7.9,1.6.9,2.6s-.3,1.8-.9,2.6c-.1.2-.3.2-.5.2Z" fill="#666"/>
        </g>
      </g>
    </g>
  </g>
</svg>