<?xml version="1.0" encoding="UTF-8"?>
<svg xmlns="http://www.w3.org/2000/svg" baseProfile="tiny" version="1.2" viewBox="0 0 50 50">
  <!-- Generator: Adobe Illustrator 28.6.0, SVG Export Plug-In . SVG Version: 1.2.0 Build 709)  -->
  <g>
    <g id="Layer_1">
      <g>
        <g>
          <path d="M39.4,25.6s0,0,0,0c-.3,0-.5-.3-.5-.6,0-.3,0-.5,0-.8,0-4.1-2.2-7.8-5.9-9.7-.3-.1-.4-.5-.2-.7.1-.3.5-.4.7-.2,4,2.1,6.4,6.2,6.4,10.7s0,.6,0,.9c0,.3-.3.5-.5.5Z" fill="#1ec85f"/>
          <path d="M18.9,25.6c-.3,0-.5-.2-.5-.5,0-.3,0-.6,0-.9,0-4.5,2.5-8.6,6.4-10.7.3-.1.6,0,.7.2.1.3,0,.6-.2.7-3.6,1.9-5.9,5.6-5.9,9.7s0,.5,0,.8c0,.3-.2.6-.5.6,0,0,0,0,0,0Z" fill="#1ec85f"/>
          <path d="M32.9,14.7h-7.5c-.9,0-1.7-.8-1.7-1.7v-.7c0-.9.8-1.7,1.7-1.7h7.5c.9,0,1.7.8,1.7,1.7v.7c0,.9-.8,1.7-1.7,1.7ZM25.4,11.7c-.3,0-.6.3-.6.6v.7c0,.3.3.6.6.6h7.5c.3,0,.6-.3.6-.6v-.7c0-.3-.3-.6-.6-.6h-7.5Z" fill="#1ec85f"/>
          <path d="M25.8,11.7s0,0,0,0c-.3,0-.5-.3-.5-.6v-.2c0-1.1-.2-2.2-.6-3.3-.1-.3-.2-.5-.4-.8-.3-.6-.3-1.3,0-1.8.4-.5,1-.8,1.6-.7h.9c0,.1.9-1.2.9-1.2.3-.4.8-.7,1.3-.7.5,0,1,.2,1.4.6.6.8.9,1.1,1.1,1.2.1,0,.4-.1.9-.3.5-.2,1.1-.1,1.6.2.5.3.7.9.7,1.4-.1,1.9-.8,3.7-1.8,5.2l-.2.3c-.2.2-.5.3-.8.1-.2-.2-.3-.5-.1-.8l.2-.3c1-1.4,1.5-3,1.6-4.7,0-.2,0-.4-.2-.5-.2-.1-.4-.2-.6,0-1.1.4-1.3.4-1.5.4-.2,0-.4,0-1.6-1.6-.1-.1-.3-.2-.5-.2-.2,0-.4.1-.5.3l-1.1,1.6c-.1.2-.3.3-.5.2l-1.2-.2c-.3,0-.5.1-.6.2-.1.2-.1.4,0,.6.2.3.3.6.4.9.5,1.2.7,2.4.7,3.7v.2c0,.3-.3.5-.5.5Z" fill="#1ec85f"/>
          <path d="M30.7,8.5s0,0-.1,0c-.3,0-.5-.3-.4-.6l.6-3.1c0-.3.3-.5.6-.4.3,0,.5.3.4.6l-.6,3.1c0,.3-.3.4-.5.4Z" fill="#1ec85f"/>
          <path d="M27.7,8.1c-.2,0-.5-.2-.5-.4l-.6-2.4c0-.3.1-.6.4-.7.3,0,.6.1.7.4l.6,2.4c0,.3-.1.6-.4.7,0,0,0,0-.1,0Z" fill="#1ec85f"/>
          <g>
            <path d="M28.9,27.5c-1.1,0-2.2-.5-2.8-1.3-.2-.2-.1-.6.1-.8.2-.2.6-.1.8.1.4.5,1.1.9,2,.9,1.3,0,2.3-.8,2.3-1.8s-.7-1.5-2.2-1.8c-1.7-.3-2.7-1.3-2.7-2.6s1.4-2.7,3.1-2.7,2,.4,2.6,1.2c.2.2.1.6,0,.8-.2.2-.6.1-.8,0-.4-.5-1-.8-1.7-.8-1.1,0-2,.7-2,1.6s1.2,1.4,1.9,1.6c2,.4,3.1,1.4,3.1,2.9s-1.5,2.9-3.4,2.9Z" fill="#1ec85f"/>
            <path d="M29.2,29.3c-.3,0-.5-.2-.5-.5v-1.7c0-.3.2-.5.5-.5s.5.2.5.5v1.7c0,.3-.2.5-.5.5Z" fill="#1ec85f"/>
            <path d="M29.2,18.5c-.3,0-.5-.2-.5-.5v-1.7c0-.3.2-.5.5-.5s.5.2.5.5v1.7c0,.3-.2.5-.5.5Z" fill="#1ec85f"/>
          </g>
        </g>
        <g>
          <path d="M18.8,41.9c-.1,0-.2,0-.3-.1-.2-.2-.3-.5,0-.8,1.2-1.5,3-2.3,4.9-2.2l6.5.4c1,0,2-.2,2.8-.8l10.9-7.9s0,0,0,0c.3-.2.5-.4.7-.7.6-.9.3-1.8-.2-2.3-.5-.5-1.3-.9-2.2-.4,0,0,0,0,0,0l-6,3.7c-.3.2-.6,0-.8-.2-.2-.3,0-.6.2-.8l6-3.7s0,0,.1,0c1.2-.7,2.6-.4,3.5.6.8.9,1.2,2.3.2,3.7-.3.4-.6.7-1,1l-10.8,7.9c-1,.7-2.3,1.1-3.5,1.1l-6.5-.4c-1.6,0-3.1.6-4,1.8-.1.1-.3.2-.4.2Z" fill="#1ec85f"/>
          <path d="M31.2,34.9h-8.2c-.3,0-.5-.2-.5-.5s.2-.5.5-.5h8.2c.8,0,1.4-.6,1.4-1.4s-.6-1.4-1.4-1.4h-7.4c-.7,0-1.3-.3-1.7-.8l-.3-.3c-.8-.9-1.9-1.5-3.1-1.7-1.5-.2-3.1.4-4.1,1.6l-4.1,4.9c-.2.2-.5.3-.8,0-.2-.2-.3-.5,0-.8l4.1-4.9c1.3-1.4,3.1-2.2,5-2,1.5.2,2.9.9,3.8,2l.3.3c.2.3.5.4.9.4h7.4c1.4,0,2.5,1.1,2.5,2.5s-1.1,2.5-2.5,2.5Z" fill="#1ec85f"/>
          <path d="M16.3,47.5c-.1,0-.2,0-.3-.1-.2-.2-.3-.5-.1-.8l1.7-2.2c.3-.4.2-1-.2-1.3l-9.1-7.1c-.2-.2-.5-.2-.7-.2-.3,0-.5.2-.6.4l-1.7,2.2c-.2.2-.5.3-.8.1-.2-.2-.3-.5-.1-.8l1.7-2.2c.3-.4.8-.7,1.4-.8.6,0,1.1,0,1.5.4l9.1,7.1c.9.7,1,2,.4,2.9l-1.7,2.2c-.1.1-.3.2-.4.2Z" fill="#1ec85f"/>
        </g>
      </g>
    </g>
  </g>
</svg>