<?xml version="1.0" encoding="UTF-8"?>
<svg xmlns="http://www.w3.org/2000/svg" baseProfile="tiny" version="1.2" viewBox="0 0 50 50">
  <!-- Generator: Adobe Illustrator 28.6.0, SVG Export Plug-In . SVG Version: 1.2.0 Build 709)  -->
  <g>
    <g id="Layer_1">
      <g>
        <g>
          <path d="M32.8,47.5c0,0-.2,0-.2,0l-2.8-1.1-2.8,1.1c-.2,0-.3,0-.5,0l-2.8-1.1-2.8,1.1c-.2,0-.3,0-.5,0l-2.8-1.1-2.8,1.1c-.2,0-.3,0-.5,0l-2.8-1.1-2.8,1.1c-.3.1-.7,0-.9-.4-.1-.3,0-.7.4-.9l3.1-1.2c.2,0,.3,0,.5,0l2.8,1.1,2.8-1.1c.2,0,.3,0,.5,0l2.8,1.1,2.8-1.1c.2,0,.3,0,.5,0l2.8,1.1,2.8-1.1c.2,0,.3,0,.5,0l3.1,1.2c.3.1.5.5.4.9-.1.3-.4.4-.6.4Z" fill="#1ec85f"/>
          <path d="M32.8,47.5c-.4,0-.7-.3-.7-.7V15.1c0-.4.3-.7.7-.7s.7.3.7.7v31.7c0,.4-.3.7-.7.7Z" fill="#1ec85f"/>
          <path d="M8.4,47.5c-.4,0-.7-.3-.7-.7V10.8c0-4.6,3.7-8.3,8.3-8.3h21.2c.4,0,.7.3.7.7s-.3.7-.7.7H16c-3.8,0-6.9,3.1-6.9,6.9v36.1c0,.4-.3.7-.7.7Z" fill="#1ec85f"/>
        </g>
        <path d="M41.6,15.8h-4.4c-.4,0-.7-.3-.7-.7s.3-.7.7-.7h3.7v-7.2c0-1.9-1.5-3.4-3.4-3.4h-.7c-1.9,0-3.4,1.5-3.4,3.4v7.9c0,.4-.3.7-.7.7s-.7-.3-.7-.7v-7.9c0-2.6,2.1-4.7,4.7-4.7h.7c2.6,0,4.7,2.1,4.7,4.7v7.9c0,.4-.3.7-.7.7Z" fill="#1ec85f"/>
        <g>
          <path d="M19.9,18.7c-1.1,0-2.1-.5-2.7-1.2-.2-.3-.2-.7.1-.9.3-.2.7-.2.9.1.3.4.9.7,1.6.7,1,0,1.8-.6,1.8-1.4s-.7-1.3-1.7-1.4c-1.5-.1-2.7-1.2-2.7-2.6s1.3-2.6,3-2.6,1.9.4,2.4,1.1c.2.3.2.7-.1.9-.3.2-.7.2-.9-.1-.3-.4-.8-.6-1.4-.6-.9,0-1.6.6-1.6,1.2s.6,1.2,1.5,1.2c0,0,0,0,0,0,1.7.2,2.9,1.3,2.9,2.7s-1.4,2.8-3.2,2.8Z" fill="#1ec85f"/>
          <path d="M20.1,20.2c-.4,0-.7-.3-.7-.7v-1.5c0-.4.3-.7.7-.7s.7.3.7.7v1.5c0,.4-.3.7-.7.7Z" fill="#1ec85f"/>
          <path d="M20.1,10.6c-.4,0-.7-.3-.7-.7v-1.5c0-.4.3-.7.7-.7s.7.3.7.7v1.5c0,.4-.3.7-.7.7Z" fill="#1ec85f"/>
        </g>
        <path d="M27.8,27h-2.7c-.4,0-.7-.3-.7-.7s.3-.7.7-.7h2.7c.4,0,.7.3.7.7s-.3.7-.7.7ZM22.2,27h-2.9c-.4,0-.7-.3-.7-.7s.3-.7.7-.7h2.9c.4,0,.7.3.7.7s-.3.7-.7.7ZM16.4,27h-2.9c-.4,0-.7-.3-.7-.7s.3-.7.7-.7h2.9c.4,0,.7.3.7.7s-.3.7-.7.7Z" fill="#1ec85f"/>
        <path d="M27.7,33.7h-2.6c-.4,0-.7-.3-.7-.7s.3-.7.7-.7h2.6c.4,0,.7.3.7.7s-.3.7-.7.7ZM22.2,33.7h-2.9c-.4,0-.7-.3-.7-.7s.3-.7.7-.7h2.9c.4,0,.7.3.7.7s-.3.7-.7.7ZM16.4,33.7h-2.9c-.4,0-.7-.3-.7-.7s.3-.7.7-.7h2.9c.4,0,.7.3.7.7s-.3.7-.7.7Z" fill="#1ec85f"/>
        <path d="M27.7,40.5h-2.6c-.4,0-.7-.3-.7-.7s.3-.7.7-.7h2.6c.4,0,.7.3.7.7s-.3.7-.7.7ZM22.2,40.5h-2.9c-.4,0-.7-.3-.7-.7s.3-.7.7-.7h2.9c.4,0,.7.3.7.7s-.3.7-.7.7ZM16.4,40.5h-2.9c-.4,0-.7-.3-.7-.7s.3-.7.7-.7h2.9c.4,0,.7.3.7.7s-.3.7-.7.7Z" fill="#1ec85f"/>
      </g>
    </g>
  </g>
</svg>