<?xml version="1.0" encoding="UTF-8"?>
<svg xmlns="http://www.w3.org/2000/svg" baseProfile="tiny" version="1.2" viewBox="0 0 50 50">
  <!-- Generator: Adobe Illustrator 28.6.0, SVG Export Plug-In . SVG Version: 1.2.0 Build 709)  -->
  <g>
    <g id="Layer_1">
      <g>
        <g>
          <path d="M33.4,37.9c0,0-.1,0-.2,0-.6,0-1.1-.3-1.5-.8l-13.2-15.5c-.4-.5-.6-1-.5-1.6,0-.6.3-1.1.8-1.5l6.9-5.9c.5-.4,1-.6,1.6-.5.6,0,1.1.3,1.5.8l9.1,10.7c.2.2.1.5,0,.7-.2.2-.5.1-.7,0l-9.1-10.7c-.2-.3-.5-.4-.9-.5-.3,0-.7,0-.9.3l-6.9,5.9c-.3.2-.4.5-.5.9,0,.3,0,.7.3.9l13.2,15.5c.2.3.5.4.9.5.3,0,.7,0,.9-.3l4.6-3.9c.2-.2.5-.1.7,0,.2.2.1.5,0,.7l-4.6,3.9c-.4.3-.9.5-1.4.5Z" fill="#666"/>
          <path d="M19.6,22.7c-.1,0-.3,0-.4-.2-.2-.2-.1-.5,0-.7l9.6-8.2c.2-.2.5-.1.7,0,.2.2.1.5,0,.7l-9.6,8.2c0,0-.2.1-.3.1Z" fill="#666"/>
          <path d="M31.4,36.6c-.1,0-.3,0-.4-.2-.2-.2-.1-.5,0-.7l5.5-4.7c.2-.2.5-.1.7,0,.2.2.1.5,0,.7l-5.5,4.7c0,0-.2.1-.3.1Z" fill="#666"/>
        </g>
        <path d="M43.5,32.1s0,0,0,0l-3-.5c-1.3-.2-2.3-1-2.9-2.2-.4-.8-1-1.3-1.8-1.6l-6.1-2c-.5-.2-.9-.5-1.1-.9-.2-.4-.3-1-.1-1.4.3-.9,1.2-1.4,2.1-1.3l7.2,1.2c.3,0,.4.3.4.5s-.3.4-.5.4l-7.2-1.2c-.5,0-.9.2-1,.6,0,.2,0,.5,0,.7.1.2.3.4.5.5l6.1,2c1,.3,1.9,1.1,2.4,2.1.4.9,1.2,1.5,2.2,1.7l3,.5c.3,0,.4.3.4.5,0,.2-.2.4-.5.4Z" fill="#666"/>
        <path d="M47,28.6c-.1,0-.3,0-.4-.2l-6.8-7.6c-.2-.3-.8-.5-1.5-.7-.5-.1-.9-.2-1.4-.2-.3,0-.5-.2-.4-.5,0-.3.2-.5.5-.4.6,0,1.1,0,1.6.2,1,.2,1.6.6,2,1l6.8,7.6c.2.2.2.5,0,.7,0,0-.2.1-.3.1Z" fill="#666"/>
        <path d="M17.9,33.9c-8.5,0-15.4-4.9-15.4-10.9s6.9-10.9,15.4-10.9,2.5.1,3.8.3c.3,0,.4.3.4.5s-.3.4-.5.4c-1.2-.2-2.4-.3-3.6-.3-7.9,0-14.4,4.5-14.4,10s6.5,10,14.4,10,4.1-.3,5.9-.9c.2,0,.5,0,.6.3,0,.2,0,.5-.3.6-2,.6-4.1.9-6.2.9Z" fill="#666"/>
        <g>
          <path d="M13.5,30.1c-.1,0-.2,0-.3-.1-.2-.2-.2-.5,0-.7,1.6-1.9,2.4-4.1,2.4-6.4s-.8-4.6-2.4-6.4c-.2-.2-.1-.5,0-.7.2-.2.5-.1.7,0,1.7,2.1,2.6,4.5,2.6,7s-.9,5-2.6,7c0,.1-.2.2-.4.2Z" fill="#666"/>
          <path d="M10.3,28.1c-.1,0-.2,0-.3-.1-.2-.2-.2-.5,0-.7,1.1-1.3,1.6-2.8,1.6-4.4s-.6-3.1-1.6-4.4c-.2-.2-.1-.5,0-.7.2-.2.5-.1.7,0,1.2,1.5,1.8,3.2,1.8,5s-.6,3.5-1.8,5c0,.1-.2.2-.4.2Z" fill="#666"/>
          <path d="M7,26.1c-.1,0-.2,0-.3-.1-.2-.2-.2-.5,0-.7.6-.7.9-1.5.9-2.4s-.3-1.7-.9-2.4c-.2-.2-.1-.5,0-.7.2-.2.5-.1.7,0,.7.9,1.1,1.9,1.1,3s-.4,2.1-1.1,3c0,.1-.2.2-.4.2Z" fill="#666"/>
        </g>
      </g>
    </g>
  </g>
</svg>