<?xml version="1.0" encoding="UTF-8"?>
<svg xmlns="http://www.w3.org/2000/svg" baseProfile="tiny" version="1.2" viewBox="0 0 50 50">
  <!-- Generator: Adobe Illustrator 28.6.0, SVG Export Plug-In . SVG Version: 1.2.0 Build 709)  -->
  <g>
    <g id="Layer_1">
      <g id="ylzndg">
        <g>
          <path d="M38.1,35.3c-.6,0-1.3,0-1.9,0-1.2,0-2.2-.6-3.2-1.6-2-2-4.1-4.1-6.3-6.3-.9-.9-2-1.1-3.1-.6-.3.1-.5.3-.8.6-2.5,2.4-4.3,4.3-6.1,6.1-1.2,1.2-2.7,1.8-4.3,1.8-.3,0-.6,0-.9,0-.3,0-.7,0-1.1,0-.3,0-.7-.2-.9-.4-1.8-1.8-3.4-3.4-4.8-4.8-1.1-1.1-1.7-2.4-2-3.9,0,0,0,0,0-.1,0,0,0,0,0-.1,0,0,0-.1,0-.2v-1.5s0,0,0-.1c0,0,0-.2,0-.3,0-.2,0-.4.2-.6.3-1.3.9-2.4,1.8-3.3,1.6-1.6,3.2-3.2,4.8-4.8.2-.2.6-.4.9-.4.6,0,1.2,0,1.8,0,.2,0,.4,0,.7,0,1.4,0,2.7.6,3.8,1.7,1.2,1.2,2.4,2.4,3.6,3.6l2.5,2.5c1.3,1.3,2.7,1.3,4,0l1.3-1.3c1.6-1.6,3.2-3.2,4.9-4.9,1.1-1.1,2.5-1.7,4-1.7.4,0,.8,0,1.2,0,.5,0,1,0,1.5,0,.3,0,.7.1,1,.4,1.5,1.5,3.2,3.1,4.8,4.7,2.9,2.9,2.9,7.3,0,10.3-1.2,1.2-2.4,2.5-3.6,3.6-.4.4-.8.8-1.2,1.1-.3.3-.5.4-.8.4-.3,0-.5,0-.8,0-.3,0-.6,0-1,0ZM24.7,25.3c1,0,2,.4,2.8,1.2,2.2,2.2,4.3,4.3,6.3,6.3.8.8,1.5,1.2,2.4,1.2.9,0,1.9,0,2.8,0,.2,0,.4,0,.6,0,0,0,0,0,0,0,.4-.4.8-.8,1.2-1.1,1.2-1.2,2.4-2.4,3.6-3.6,2.4-2.4,2.4-6.1,0-8.5-1.6-1.6-3.2-3.2-4.7-4.7,0,0-.1,0-.2,0-.5,0-1,0-1.5,0-.4,0-.8,0-1.2,0-1.2,0-2.2.4-3.1,1.3-1.6,1.6-3.3,3.3-4.9,4.9l-1.3,1.3c-1.8,1.8-4,1.8-5.8,0l-2.5-2.5c-1.2-1.2-2.4-2.4-3.6-3.6-.9-.9-1.8-1.3-2.9-1.3-.2,0-.4,0-.7,0-.6,0-1.2,0-1.8,0,0,0,0,0,0,0-1.6,1.6-3.2,3.2-4.8,4.8-.7.7-1.2,1.6-1.5,2.7,0,.2,0,.4-.1.6,0,0,0,.1,0,.2v1.3s0,0,0,0c0,0,0,.2,0,.3.2,1.3.7,2.4,1.6,3.2,1.5,1.5,3,3,4.8,4.8,0,0,0,0,0,0,.3,0,.7,0,1,0,.3,0,.7,0,1,0,1.3,0,2.4-.4,3.4-1.4,1.8-1.8,3.7-3.7,6.1-6.1.4-.4.8-.7,1.1-.9.6-.3,1.1-.4,1.7-.4Z" fill="#666"/>
          <path d="M24.7,22.9c-.5,0-1-.3-1.5-.8-.6-.6-1.2-1.2-1.8-1.8-1.4-1.4-2.9-2.9-4.4-4.4-1.2-1.2-2.6-1.8-4.4-1.8-.1,0-.2,0-.3,0h-.2c-.2,0-.5-.1-.6-.4s0-.5,0-.7c0,0,0,0,.1-.1,0,0,.1-.2.2-.2,2.6-2.7,5.3-5.3,7.9-7.9,1.2-1.2,2.6-1.9,4.1-2.1h0s0,0,0,0c0,0,.1,0,.2,0h1.5s0,0,.1,0c.1,0,.2,0,.3,0,.2,0,.5.1.8.2,1.2.3,2.2.9,3,1.7,2.1,2.1,4.2,4.2,6.3,6.3l2,2c0,0,0,.1.1.2,0,0,0,0,0,0,.1.2.2.5,0,.7s-.3.4-.6.4-.2,0-.3,0c-.2,0-.4,0-.6,0-1.8,0-3.4.6-4.7,1.9-1.4,1.5-2.9,2.9-4.3,4.4-.6.6-1.2,1.2-1.8,1.8-.5.5-1,.8-1.5.8ZM13.5,12.8c1.7.2,3.2.9,4.4,2.2,1.4,1.5,2.9,3,4.4,4.4.6.6,1.2,1.2,1.8,1.8.5.5.7.5,1.3,0,.6-.6,1.2-1.2,1.8-1.8,1.4-1.4,2.9-2.9,4.3-4.3,1.4-1.5,3.1-2.2,5-2.3l-1.1-1.1c-2.1-2.1-4.2-4.2-6.3-6.2-.7-.6-1.5-1.1-2.4-1.4-.2,0-.5-.1-.7-.2,0,0-.2,0-.3,0h-1.3c0,0-.1,0-.2,0-1.3.2-2.5.8-3.5,1.7-2.4,2.4-4.8,4.8-7.2,7.2Z" fill="#666"/>
          <path d="M25,47.5c-1.9,0-3.8-.7-5.3-2.2-1.9-1.9-3.8-3.8-5.7-5.7-.7-.7-1.5-1.5-2.2-2.2,0,0-.1-.1-.2-.2h0c-.2-.2-.2-.5-.1-.7,0-.2.3-.4.5-.4.3,0,.5,0,.8-.1.6,0,1.1-.1,1.7-.3.9-.2,1.7-.7,2.4-1.5,1.7-1.7,3.3-3.3,5-5l1.3-1.3c1-1,2-1,3,0,.6.6,1.2,1.2,1.8,1.8,1.4,1.4,2.9,2.8,4.3,4.3,1.4,1.4,3,2.1,4.9,2,.2,0,.3,0,.5,0,0,0,.2,0,.3,0,.2,0,.5.1.6.4.1.2,0,.5,0,.7,0,0,0,0-.1.1,0,0-.1.2-.2.2-.7.7-1.4,1.4-2.1,2.1-1.9,1.9-3.8,3.8-5.7,5.7-1.5,1.5-3.4,2.2-5.3,2.2ZM13.4,37.2c.5.5,1,1,1.5,1.5,1.9,1.9,3.8,3.8,5.7,5.7,2.5,2.5,6.3,2.5,8.8,0,1.9-1.9,3.8-3.8,5.7-5.7.5-.5.9-.9,1.4-1.4-1.9-.1-3.7-.9-5.1-2.4-1.4-1.4-2.8-2.9-4.2-4.3-.6-.6-1.2-1.2-1.8-1.8-.5-.5-.7-.5-1.2,0l-1.3,1.3c-1.7,1.7-3.3,3.3-5,5-1,1-2,1.6-3,1.8-.4.1-.9.2-1.3.2Z" fill="#666"/>
        </g>
      </g>
    </g>
  </g>
</svg>