<svg width="390" height="443" viewBox="0 0 390 443" fill="none" xmlns="http://www.w3.org/2000/svg">
<g clip-path="url(#clip0_56_390)">
<path d="M325.098 212.242C324.512 212.242 323.917 212.215 323.314 212.149C319.574 211.745 316.956 209.949 314.649 208.361C313.016 207.244 311.481 206.184 309.369 205.452C306.316 204.396 304.692 201.07 305.744 198.014C306.8 194.959 310.128 193.344 313.185 194.395C316.801 195.642 319.285 197.349 321.277 198.72C322.866 199.815 323.802 200.436 324.574 200.52C325.67 200.635 327.303 200.316 329.006 199.975C332.609 199.256 337.082 198.351 342.171 200.205C345.205 201.31 346.772 204.667 345.667 207.7C344.558 210.734 341.203 212.308 338.169 211.195C336.274 210.508 334.326 210.84 331.318 211.444C329.428 211.825 327.334 212.242 325.098 212.242Z" fill="#161450"/>
<path d="M189.387 53.3443C197.627 43.9377 202.685 31.1515 208.399 25.0844C214.948 18.1348 223.272 22.2239 223.272 22.2239L206.212 58.0277C206.212 58.0277 186.512 56.6262 189.387 53.3443Z" fill="#161450"/>
<path d="M312.533 433.278C303.166 433.278 295.819 433.5 295.282 426.009L284.54 216.93C283.893 207.053 288.347 198.347 298.228 197.695C308.118 197.087 320.758 198.139 321.411 208.015L330.444 414.177C330.701 418.066 341.124 433.278 337.499 433.278C324.286 433.278 312.927 433.278 312.533 433.278Z" fill="#161450"/>
<path d="M328.017 136.301C328.03 128.447 324.095 118.894 317.426 115C309.32 110.272 300.025 108.272 288.063 107.913C265.737 107.247 254.285 111.904 243.974 132.793C234.728 151.518 249.853 182.212 246.774 215.395C245.829 225.591 258.935 243.46 264.286 245.469C279.606 251.217 294.088 254.712 302.292 249.926C322.64 238.063 322.932 229.082 322.564 203.159C322.498 198.595 322.413 193.504 322.413 187.778C322.413 167.719 327.977 156.835 328.017 136.301Z" fill="#161450"/>
<path d="M294.905 99.1935L286.59 98.2932C282.233 97.8186 279.052 93.8715 279.527 89.5119L281.399 72.2552C281.874 67.9 285.823 64.7201 290.184 65.1947L298.499 66.095C302.856 66.5695 306.037 70.5167 305.562 74.8763L303.69 92.1329C303.215 96.4881 299.266 99.668 294.905 99.1935Z" fill="#161450"/>
<path d="M282.082 73.1688C279.633 78.3534 275.631 80.4112 275.298 83.5113C274.775 88.3632 293.197 87.2766 293.197 87.2766C293.197 87.2766 284.119 68.8491 282.082 73.1688Z" fill="#161450"/>
<path d="M296.706 85.9328C296.533 85.9328 296.36 85.924 296.187 85.9062C295.788 85.8619 295.495 85.5026 295.539 85.0991C295.584 84.6999 295.881 84.3894 296.347 84.4515C297.11 84.5447 297.851 84.354 298.437 83.9415C298.991 83.5468 299.333 82.9924 299.399 82.3715C299.541 81.0588 298.406 79.8524 296.862 79.6839C296.462 79.6395 296.169 79.2803 296.214 78.8767C296.258 78.4776 296.582 78.1228 297.021 78.2336C299.364 78.4864 301.085 80.4157 300.855 82.5267C300.739 83.569 300.18 84.4959 299.28 85.1345C298.543 85.6579 297.642 85.9328 296.711 85.9328H296.706Z" fill="#6365C2"/>
<path d="M215.702 377.588C224.86 377.677 232.092 378.142 232.354 369.348C232.141 347.306 227.677 327.277 223.547 308.446C221.479 299.053 219.349 289.881 217.934 281.49L217.073 275.463C216.976 273.707 216.701 271.72 216.701 270.19C216.709 269.245 216.763 269.174 216.816 269.015C216.856 268.815 216.949 268.536 217.029 268.309C217.166 267.835 217.406 267.409 217.65 267.019C218.103 266.398 218.702 265.937 219.323 265.608C220.09 265.143 220.042 265.608 222.424 264.056C226.768 261.67 232.62 259.124 238.889 256.734C251.796 251.869 266.211 247.713 282.521 241.482C285.206 240.382 287.637 238.817 289.625 237.016C291.812 234.985 293.556 232.687 294.714 230.337C297.425 225.157 297.545 219.821 294.94 215.781C292.34 211.705 287.89 209.284 283.493 208.144C279.043 206.947 274.429 206.924 269.947 208.676C255.457 214.349 240.26 218.637 225.193 224.416C217.654 227.365 210.094 230.559 202.653 234.98C195.257 239.424 186.636 246.786 183.433 256.286C182.816 258.925 182.018 261.573 181.929 264.327C181.583 267.059 181.472 269.817 181.703 272.687C181.889 277.658 182.515 282.231 183.247 286.71C184.715 295.664 186.632 304.197 188.495 312.562C192.209 329.242 195.821 345.563 196.917 361.032C197.17 362.828 192.631 367.556 188.615 371.206C184.289 374.736 180.496 377.18 182.271 377.215C195.2 377.357 215.316 377.584 215.702 377.588Z" fill="#161450"/>
<path d="M266.358 246.746C266.247 246.746 266.127 246.733 266.016 246.706C245.474 241.757 245.305 215.657 245.305 215.395C245.305 214.588 245.962 213.936 246.769 213.936C247.577 213.936 248.229 214.592 248.229 215.4C248.229 215.639 248.411 239.455 266.7 243.859C267.485 244.05 267.969 244.839 267.778 245.624C267.614 246.294 267.019 246.742 266.354 246.742L266.358 246.746Z" fill="#6365C2"/>
<path d="M223.831 153.349C223.108 153.349 222.371 153.341 221.621 153.327C198.163 152.826 180.212 137.437 174.764 113.168C169.151 88.1503 178.344 54.0096 206.434 39.9994C207.729 39.3563 208.107 39.037 208.12 39.0236C208.12 39.0059 208.559 38.4161 209.651 35.9901C213.635 27.16 224.022 23.2173 232.864 27.1999C241.702 31.1826 245.642 41.5693 241.658 50.4039C237.62 59.3582 232.94 65.9974 222.109 71.3992C210.951 76.9607 206.332 93.5122 209.02 105.487C211.833 118.016 219.767 118.184 222.371 118.242C231.05 118.428 235.992 116.982 243.375 114.796C249.893 112.862 258.008 110.458 269.788 109.035C279.389 107.891 288.156 114.729 289.319 124.349C290.481 133.968 283.622 142.71 273.998 143.872C265.151 144.941 259.423 146.639 253.358 148.435C245.203 150.852 236.786 153.349 223.835 153.349H223.831Z" fill="#161450"/>
<path d="M273.714 66.1526C275.068 66.778 275.667 68.3968 275.041 69.7539L273.492 73.1067C272.867 74.4594 271.247 75.0581 269.894 74.4328C268.541 73.8075 267.942 72.1887 268.568 70.836L270.116 67.4831C270.742 66.1305 272.361 65.5317 273.719 66.1571L273.714 66.1526Z" fill="#86D788"/>
<path d="M149.158 0.323743L151.066 1.20187C152.832 2.01792 153.613 4.13342 152.797 5.89855L145.609 21.4477C144.792 23.2128 142.681 23.9934 140.91 23.1774L139.002 22.2992C137.237 21.4832 136.456 19.3677 137.272 17.6025L144.46 2.0534C145.276 0.288262 147.388 -0.4923 149.158 0.323743Z" fill="#86D788"/>
<path d="M175.243 17.2522L273.137 67.3944L270.466 73.1821L168.809 31.1781L175.243 17.2522Z" fill="#86D788"/>
<path d="M241.538 61.7043L245.647 52.8165C245.935 52.1912 245.678 51.4461 245.065 51.1312L149.464 2.16428L140.604 21.3368L239.874 62.3563C240.513 62.6179 241.245 62.3341 241.538 61.7043Z" fill="#86D788"/>
<path d="M237.421 54.8167C236.879 54.8167 236.329 54.7413 235.784 54.5817C232.682 53.6814 230.899 50.4305 231.799 47.3304L235.952 33.0497C236.857 29.9496 240.101 28.1623 243.206 29.0671C246.308 29.9718 248.091 33.2182 247.191 36.3183L243.038 50.599C242.292 53.1536 239.954 54.8167 237.421 54.8167Z" fill="#161450"/>
<path d="M213.83 45.9911C212.863 45.9911 211.882 45.7516 210.982 45.2504C208.16 43.676 207.153 40.1102 208.728 37.2896L215.751 24.7341C217.326 21.9178 220.929 20.7869 223.76 22.3658C226.582 23.9446 227.544 27.6257 225.969 30.4419L218.946 42.9974C217.872 44.9089 215.884 45.9911 213.83 45.9911Z" fill="#161450"/>
<path d="M223.542 55.0829C222.81 55.0829 222.065 54.9409 221.346 54.6527C218.351 53.4375 216.909 50.0269 218.125 47.0333L226.409 26.6367C227.624 23.6431 231.032 22.2017 234.031 23.4169C237.026 24.6321 238.468 28.0426 237.252 31.0362L228.969 51.4328C228.046 53.7036 225.854 55.0829 223.542 55.0829Z" fill="#161450"/>
<path d="M208.399 79.9056C206.864 79.9056 205.333 79.3069 204.184 78.1139C201.944 75.7899 202.015 72.0867 204.34 69.847C212.818 61.6777 221.586 62.0104 227.376 62.2543C229.204 62.3252 231.724 62.4228 232.376 62.0059C240.571 56.7549 250.984 60.9016 252.142 61.3939C255.115 62.6534 256.508 66.0861 255.248 69.062C253.988 72.0335 250.558 73.4305 247.577 72.1665C245.731 71.4126 241.081 70.3171 238.708 71.8516C234.954 74.2643 230.695 74.1091 226.919 73.9494C221.785 73.741 217.348 73.5724 212.459 78.278C211.323 79.3734 209.863 79.9145 208.404 79.9145L208.399 79.9056Z" fill="#161450"/>
<path d="M322.147 214.694L321.961 214.295C320.492 211.421 317.692 210.02 315.616 211.107C311.161 213.577 300.176 214.592 296.426 214.57C294.057 214.601 290.344 217.107 291.151 221.263C291.497 225.121 295.428 226.115 297.953 226.061C298.53 226.172 313.717 225.458 320.612 221.662C322.755 220.562 323.367 217.457 322.147 214.69V214.694Z" fill="#161450"/>
<path d="M324.534 226.634C323.27 223.649 320.386 222.03 318.061 222.939C310.5 225.888 302.731 228.385 294.883 230.448C292.465 231.082 289.567 233.96 290.255 237.894C291.151 241.939 295.242 242.449 297.833 241.77C306.166 239.579 314.285 236.972 322.316 233.836C324.814 232.865 325.799 229.601 324.539 226.634H324.534Z" fill="#161450"/>
<path d="M330.222 236.967C328.94 234.013 325.914 232.439 323.456 233.432C320.519 234.581 317.098 237.291 313.659 239.797C311.539 241.34 308.06 243.349 306.56 244.063C304.129 245.221 302.625 249.092 303.85 252.175C305.052 255.164 309.839 255.576 312.408 254.348C314.604 253.315 317.111 251.563 319.72 249.669C322.511 247.66 325.892 245.048 327.773 244.303C330.409 243.234 331.509 239.947 330.222 236.963V236.967Z" fill="#161450"/>
<path d="M290.796 124.633C288.875 134.146 293.267 143.038 300.402 144.67C312.759 147.584 324.876 150.994 335.253 155.86C340.356 158.308 344.997 161.133 348.395 164.211C351.834 167.324 353.729 170.393 354.483 173.613C355.317 177.019 354.82 180.585 353.36 184.026C351.683 187.53 348.799 191.304 344.766 194.719C336.793 201.66 325.838 207.257 314.524 211.759C308.051 214.313 304.888 223.511 307.754 232.785C310.607 242.032 319.449 247.527 327.427 244.391C341.035 238.861 354.718 232.39 367.86 221.143C374.347 215.55 380.811 208.202 385.346 198.489C389.783 188.59 391.371 176.713 388.687 165.679C386.131 154.29 379.201 144.63 372.106 138.319C364.927 131.848 357.491 127.626 350.286 124.136C335.848 117.421 321.952 113.731 308.362 110.481C300.504 108.68 292.726 115.137 290.805 124.619L290.796 124.633Z" fill="#161450"/>
<path d="M299.275 227.423C293.756 227.423 290.317 226.048 289.026 223.312C287.899 220.926 288.05 218.176 289.425 216.131C290.845 214.016 293.379 212.951 296.507 213.111C304.981 213.55 313.486 211.679 319.884 207.944C321.025 207.279 321.167 203.851 320.829 201.629C320.71 200.831 321.26 200.086 322.054 199.966C322.861 199.85 323.598 200.392 323.718 201.19C323.904 202.405 324.663 208.543 321.353 210.472C314.476 214.486 305.349 216.548 296.347 216.034C294.275 215.927 292.686 216.517 291.848 217.763C291.058 218.943 290.987 220.629 291.666 222.065C292.265 223.338 295.162 226.021 309.032 223.44C309.804 223.29 310.589 223.813 310.735 224.607C310.882 225.401 310.363 226.163 309.569 226.31C305.575 227.055 302.141 227.427 299.271 227.427L299.275 227.423Z" fill="#6365C2"/>
<path d="M308.286 255.887C305.345 255.887 303.623 254.428 302.643 253.013C300.571 250.01 301.933 246.112 304.267 243.961C305.074 243.216 307.297 241.597 309.657 239.925C304.99 241.256 299.741 242.741 297.594 243.305C292.469 244.644 289.55 241.721 288.596 238.817C287.726 236.182 289.093 232.639 291.848 230.39C294.195 228.478 306.41 224.301 308.832 223.485C309.613 223.227 310.429 223.64 310.687 224.403C310.949 225.17 310.536 225.999 309.768 226.257C304.347 228.084 295.193 231.441 293.698 232.661C291.724 234.271 290.956 236.634 291.373 237.903C291.737 239.016 292.997 241.482 296.848 240.48C301.037 239.384 317.227 234.719 317.391 234.67C318.083 234.457 318.815 234.803 319.121 235.455C319.423 236.107 319.214 236.878 318.615 237.286C315.683 239.273 307.741 244.742 306.246 246.121C304.83 247.425 303.969 249.798 305.048 251.354C305.74 252.361 307.08 253.59 310.549 252.627C312.927 251.966 316.126 249.558 318.469 247.802C319.725 246.862 320.821 246.041 321.61 245.584C322.307 245.185 323.203 245.42 323.611 246.121C324.015 246.822 323.776 247.713 323.075 248.121C322.356 248.534 321.371 249.283 320.23 250.139C317.564 252.144 314.241 254.636 311.335 255.443C310.199 255.758 309.187 255.896 308.291 255.896L308.286 255.887Z" fill="#6365C2"/>
<path opacity="0.31" d="M182.523 208.379V173.041H217.876L182.523 208.379Z" fill="#C9D7F2"/>
<path opacity="0.31" d="M220.499 213.923C219.749 213.923 219.003 213.639 218.431 213.067L186.37 181.019C185.226 179.875 185.226 178.026 186.37 176.886C187.515 175.742 189.365 175.742 190.505 176.886L222.566 208.933C223.706 210.073 223.706 211.927 222.566 213.067C221.994 213.639 221.244 213.923 220.499 213.923Z" fill="#C9D7F2"/>
<path d="M325.723 153.403C325.581 153.403 325.439 153.38 325.302 153.341C325.111 153.283 306.001 147.522 303.068 146.817C302.283 146.626 301.8 145.836 301.99 145.051C302.181 144.271 302.94 143.787 303.756 143.974C306.769 144.701 325.359 150.307 326.149 150.546C326.921 150.782 327.36 151.593 327.125 152.369C326.934 152.999 326.353 153.407 325.723 153.407V153.403Z" fill="#6365C2"/>
<path d="M240.988 152.263C240.207 152.263 239.555 151.646 239.524 150.857C239.511 150.542 238.583 119.257 262.032 110.387C262.782 110.112 263.634 110.481 263.918 111.239C264.202 111.993 263.825 112.84 263.066 113.124C241.56 121.258 242.435 150.449 242.448 150.746C242.479 151.553 241.849 152.232 241.041 152.267H240.984L240.988 152.263Z" fill="#6365C2"/>
<path opacity="0.31" d="M74.3174 437.953V302.25C74.3174 290.351 64.6672 280.71 52.7676 280.71H21.5498C9.64573 280.71 0 290.356 0 302.25V437.953C0 440.743 2.2628 443.004 5.05358 443.004H69.2683C72.059 443.004 74.3218 440.743 74.3218 437.953H74.3174Z" fill="#C9D7F2"/>
<path opacity="0.31" d="M249.848 437.953V399.111C249.848 387.212 240.198 377.57 228.299 377.57H197.081C185.177 377.57 175.531 387.216 175.531 399.111V437.953C175.531 440.743 177.794 443.004 180.585 443.004H244.799C247.59 443.004 249.853 440.743 249.853 437.953H249.848Z" fill="#C9D7F2"/>
<path opacity="0.31" d="M340.862 437.953C340.862 435.372 338.768 433.278 336.185 433.278H271.217C268.634 433.278 266.54 435.372 266.54 437.953C266.54 440.743 268.803 443.004 271.594 443.004H335.808C338.599 443.004 340.862 440.743 340.862 437.953Z" fill="#C9D7F2"/>
<path d="M162.083 437.953V185.277C162.083 173.378 152.433 163.736 140.533 163.736H109.315C97.4112 163.736 87.7655 173.382 87.7655 185.277V437.949C87.7655 440.738 90.0283 443 92.8191 443H157.034C159.825 443 162.087 440.738 162.087 437.949L162.083 437.953Z" fill="#86D788"/>
<path d="M224.545 33.5065C224.354 33.5065 224.146 33.4622 223.915 33.3646C222.695 32.8147 223.076 31.5817 223.307 30.8411C223.968 28.7034 224.199 27.3419 223.981 26.8052C223.675 26.0557 224.035 25.2042 224.789 24.9026C225.437 24.6365 226.169 24.876 226.546 25.4304C226.945 25.1953 227.455 25.1598 227.908 25.3771C228.636 25.7275 228.946 26.6012 228.596 27.3285C228.392 27.7499 226.608 31.4708 226.098 32.3224C225.885 32.6772 225.383 33.5065 224.545 33.5065Z" fill="#6365C2"/>
<path d="M236.037 37.0279C235.979 37.0279 235.921 37.0279 235.859 37.019C235.225 36.9614 234.55 36.2518 234.408 35.6264C234.2 34.6951 234.581 33.7992 234.989 32.8457C235.344 32.0252 235.739 31.0894 235.664 30.2822C235.588 29.4795 236.179 28.7655 236.982 28.6901C237.483 28.6679 238.002 28.8808 238.295 29.2799C238.756 29.1868 239.284 29.3154 239.648 29.6924C240.212 30.2734 240.198 31.2003 239.622 31.7591C239.24 32.1272 238.623 33.5952 238.29 34.3802C237.625 35.9635 237.177 37.0323 236.037 37.0323V37.0279Z" fill="#6365C2"/>
<path d="M210.919 35.0898C210.635 35.0898 210.347 35.0055 210.094 34.837C209.429 34.3802 209.256 33.471 209.713 32.8058C211.234 30.5794 212.854 27.8563 213.551 26.2641C213.302 26.2065 213.062 26.0779 212.863 25.8872C212.282 25.3239 212.273 24.4014 212.836 23.8204C213.271 23.3681 214.411 22.3791 215.658 22.9113C216.23 23.1641 216.905 23.7805 216.825 25.315C216.71 27.5813 213.2 32.8856 212.126 34.46C211.842 34.8725 211.385 35.0987 210.919 35.0987V35.0898Z" fill="#6365C2"/>
<path d="M234.404 63.0126C234.129 63.0126 233.845 62.9328 233.596 62.7687C233.472 62.6844 221.106 54.5772 212.583 58.9635C211.873 59.3449 210.982 59.0566 210.613 58.3337C210.241 57.6152 210.529 56.7327 211.243 56.3646C221.302 51.1933 234.652 59.9613 235.216 60.3383C235.886 60.7863 236.072 61.6954 235.619 62.3651C235.335 62.7864 234.874 63.0171 234.399 63.0171L234.404 63.0126Z" fill="#6365C2"/>
</g>
<defs>
<clipPath id="clip0_56_390">
<rect width="390" height="443" fill="white"/>
</clipPath>
</defs>
</svg>
