<?xml version="1.0" encoding="UTF-8"?>
<svg id="Layer_2" data-name="Layer 2" xmlns="http://www.w3.org/2000/svg" viewBox="0 0 120 21.27">
  <defs>
    <style>
      .cls-1 {
        fill: #fff;
      }
    </style>
  </defs>
  <g id="Layer_1-2" data-name="Layer 1">
    <g>
      <g>
        <polygon class="cls-1" points="14.93 21.27 8.43 14.77 2.19 21.01 1.67 20.49 8.43 13.73 14.93 20.23 21.43 13.73 28.19 20.49 27.67 21.01 21.43 14.77 14.93 21.27"/>
        <rect class="cls-1" x="21.76" y="8.96" width="9.19" height=".73" transform="translate(1.12 21.37) rotate(-45)"/>
        <rect class="cls-1" x="14.56" width=".73" height="9.19"/>
        <rect class="cls-1" x="3.14" y="4.73" width=".73" height="9.19" transform="translate(-5.57 5.21) rotate(-45)"/>
      </g>
      <g>
        <path class="cls-1" d="M39.82,8.19h1.18l3.76,5.63,3.76-5.63h1.18v10.32h-1.16v-8.36l-3.76,5.53h-.06l-3.76-5.51v8.34h-1.14v-10.32Z"/>
        <path class="cls-1" d="M56.43,8.12h1.09l4.7,10.39h-1.25l-1.21-2.73h-5.62l-1.22,2.73h-1.19l4.7-10.39ZM59.31,14.72l-2.34-5.25-2.36,5.25h4.7Z"/>
        <path class="cls-1" d="M63.2,13.38v-.03c0-2.92,2.18-5.33,5.22-5.33,1.87,0,2.99.66,4.02,1.64l-.8.85c-.87-.82-1.84-1.41-3.24-1.41-2.28,0-3.99,1.86-3.99,4.23v.03c0,2.39,1.72,4.26,3.99,4.26,1.41,0,2.34-.55,3.33-1.49l.77.75c-1.08,1.09-2.25,1.81-4.13,1.81-2.98,0-5.17-2.34-5.17-5.31Z"/>
        <path class="cls-1" d="M73.78,13.38v-.03c0-2.84,2.14-5.33,5.28-5.33s5.25,2.46,5.25,5.31v.03c0,2.85-2.14,5.34-5.28,5.34s-5.25-2.46-5.25-5.31ZM83.1,13.38v-.03c0-2.34-1.71-4.26-4.07-4.26s-4.04,1.89-4.04,4.23v.03c0,2.34,1.71,4.26,4.07,4.26s4.04-1.89,4.04-4.23Z"/>
        <path class="cls-1" d="M86.77,8.19h1.09l6.5,8.27v-8.27h1.14v10.32h-.93l-6.66-8.46v8.46h-1.14v-10.32Z"/>
        <path class="cls-1" d="M98.41,8.19h3.58c3.24,0,5.48,2.22,5.48,5.13v.03c0,2.9-2.24,5.16-5.48,5.16h-3.58v-10.32ZM99.57,9.27v8.16h2.42c2.61,0,4.27-1.77,4.27-4.05v-.03c0-2.28-1.67-4.08-4.27-4.08h-2.42Z"/>
        <path class="cls-1" d="M109.48,13.38v-.03c0-2.84,2.14-5.33,5.28-5.33s5.25,2.46,5.25,5.31v.03c0,2.85-2.14,5.34-5.28,5.34s-5.25-2.46-5.25-5.31ZM118.79,13.38v-.03c0-2.34-1.71-4.26-4.07-4.26s-4.04,1.89-4.04,4.23v.03c0,2.34,1.71,4.26,4.07,4.26s4.04-1.89,4.04-4.23Z"/>
      </g>
    </g>
  </g>
</svg>