<?xml version="1.0" encoding="UTF-8"?>
<svg id="Layer_2" data-name="Layer 2" xmlns="http://www.w3.org/2000/svg" viewBox="0 0 1426.09 424.53">
  <defs>
    <style>
      .cls-1 {
        fill: #1ec85f;
      }
    </style>
  </defs>
  <g id="Camada_1" data-name="Camada 1">
    <g>
      <g>
        <g>
          <path class="cls-1" d="M619.53,165.54v115.35l52.69-.38-.91-147.6c-.03-5.63,4.5-10.23,10.14-10.26l90.28-.56-.38-62.1s-58.45-1.37-106.98,55.44c-12.26,14.36-44.83,50.11-44.83,50.11Z"/>
          <g>
            <path class="cls-1" d="M927.17,281.48v-121.81c0-27.76-14.5-36.46-37.29-36.46-20.3,0-36.46,11.6-45.58,23.62v134.66h-52.62V57.66L844.3.49v106.97c12.84-15.33,37.7-31.07,70.44-31.07,43.92,0,65.05,24.03,65.05,62.98v142.12h-52.62Z"/>
            <path class="cls-1" d="M998.84,281.48V81.35h52.62v200.12h-52.62Z"/>
            <path class="cls-1" d="M1070.11,281.48v-39.36l90.32-114.77h-90.32v-45.99h161.59v38.12l-91.57,116.01h93.22v45.99h-163.25Z"/>
            <path class="cls-1" d="M1372.57,281.48v-20.72c-13.67,16.16-37.29,25.69-63.39,25.69-31.9,0-69.61-21.55-69.61-66.29s37.7-64.64,69.61-64.64c26.52,0,50.13,8.7,63.39,24.45v-26.93c0-20.3-17.4-33.56-43.92-33.56-21.54,0-41.43,7.87-58.42,23.62l-19.89-35.22c24.45-21.54,55.94-31.49,87.42-31.49,45.58,0,87.42,18.23,87.42,75.82v129.27h-52.62ZM1372.57,233.41v-24.86c-8.7-11.6-25.27-17.4-42.26-17.4-20.72,0-37.7,10.77-37.7,30.25s16.99,29.42,37.7,29.42c16.99,0,33.56-5.8,42.26-17.4Z"/>
          </g>
          <path class="cls-1" d="M993.46,32.07c0-17.4,14.5-31.07,31.49-31.07s31.49,13.67,31.49,31.07-14.09,31.49-31.49,31.49-31.49-14.09-31.49-31.49Z"/>
        </g>
        <g>
          <path class="cls-1" d="M1064.08,424.53v-94.35h38.76c15.84,0,26.03,9.19,26.03,24.05,0,11.88-8.06,19.94-16.55,21.64,10.04,1.56,18.39,12.02,18.39,23.2,0,15.7-10.19,25.46-27.02,25.46h-39.61ZM1120.38,355.08c0-9.62-6.37-17.54-18.53-17.54h-29.7v34.94h29.7c12.16,0,18.53-7.64,18.53-17.4ZM1122.22,398.51c0-9.62-6.65-18.67-19.8-18.67h-30.27v37.34h30.27c12.45,0,19.8-7.21,19.8-18.67Z"/>
          <path class="cls-1" d="M1224.92,424.53l-9.34-23.2h-49.93l-9.33,23.2h-9.34l38.62-94.35h10.04l38.61,94.35h-9.33ZM1190.55,338.81l-22.21,55.17h44.56l-22.35-55.17Z"/>
          <path class="cls-1" d="M1321.26,424.53l-59.41-81.05v81.05h-8.06v-94.35h8.2l59.13,79.92v-79.92h8.06v94.35h-7.92Z"/>
          <path class="cls-1" d="M1415.76,424.53l-38.9-44.42-10.47,11.46v32.96h-8.06v-94.35h8.06v51.63l45.55-51.63h10.33l-40.17,44.98,43.99,49.37h-10.33Z"/>
        </g>
      </g>
      <g>
        <path class="cls-1" d="M389.03,331.27l-261.03.19c-9.96,0-18.04-8.06-18.05-18.02l-.12-159.67L0,153.85s-1.83,65.49,47.82,135.76l142.37,133.76,198.99,1.08-.16-93.18Z"/>
        <path class="cls-1" d="M124.98,97.41l272.9-.2c10.41,0,18.86,8.43,18.87,18.84l.12,166.92,114.81-.08s1.91-68.46-49.99-141.93L332.84,1.13,124.81,0l.17,97.41Z"/>
      </g>
    </g>
  </g>
</svg>